<svg xmlns="http://www.w3.org/2000/svg" width="18" height="14" viewBox="0 0 18 14">
  <path fill="#E1D7F5" d="M35.8518519,21.5789474 C35.1851852,21.9298246 34.4444444,22.1052632 33.7037037,22.2105263 C34.4444444,21.754386 35.0740741,21.0526316 35.3703704,20.245614 C34.6296296,20.6666667 33.8888889,20.9473684 33,21.122807 C32.6296296,20.4210526 31.5185185,20 30.4074074,20 C28.5555556,20 26.7037037,21.6140351 26.7037037,23.5087719 L26.7037037,24.3859649 C23.7407407,24.1052632 20.7777778,22.7017544 18.9259259,20.5263158 C18.5555556,21.0526316 18.5555556,21.6491228 18.5555556,22.2807018 C18.5555556,23.5438596 19.2962963,24.6315789 20.4074074,25.2631579 C19.9259259,25.2631579 19.2962963,25.0877193 18.8518519,24.8070175 C18.8518519,26.5614035 20.1481481,27.9649123 21.8148148,28.3157895 C21.5555556,28.4210526 21.2222222,28.4561404 20.8888889,28.4561404 C20.6666667,28.4561404 20.4444444,28.4561404 20.1481481,28.3859649 C20.7037037,29.7894737 22,30.8421053 23.7037037,30.8421053 C22.2222222,31.8947368 20.5925926,32.4561404 18.8888889,32.4561404 C18.5925926,32.4561404 18.2962963,32.4561404 18,32.3859649 C19.6666667,33.4385965 21.7037037,34 23.7777778,34 C30.8148148,34 34.5185185,28.5964912 34.5185185,23.8947368 L34.5185185,23.4385965 C34.8888889,22.9824561 35.6296296,22.2807018 36,21.5789474 L35.8518519,21.5789474 Z" opacity=".6" transform="translate(-18 -20)"/>
</svg>
