<svg xmlns="http://www.w3.org/2000/svg" width="100" height="24" viewBox="0 0 100 24">
  <path fill="#96F" d="M813.274233,39.1563791 L813.517997,37.7326061 C813.688203,36.7308377 814.532198,36.0000097 815.518894,36 L817.286183,36 C817.886223,36.0000059 818.455562,36.2734473 818.841526,36.7469985 C819.22749,37.2205497 819.390586,37.8457555 819.287079,38.4549615 L819.043315,39.8787345 C818.87311,40.8805029 818.029115,41.6113309 817.042419,41.6113406 L815.27513,41.6113406 C814.67509,41.6113347 814.105751,41.3378933 813.719787,40.8643421 C813.333823,40.3907909 813.170727,39.7655851 813.274233,39.1563791 Z M810.135772,57.4979251 L811.93861,46.9714271 C812.02576,46.46569 812.456012,46.0998257 812.954293,46.1077413 L816.78342,46.1077413 C817.086624,46.1029114 817.376062,46.2379731 817.572598,46.475998 C817.769133,46.714023 817.852206,47.0301115 817.799103,47.3378393 L815.879461,58.225515 C815.709256,59.2272834 814.865261,59.9581114 813.878565,59.9581211 L812.136668,59.9581211 C811.53557,59.9583885 810.965222,59.6842449 810.57906,59.2094407 C810.192898,58.7346365 810.030579,58.1079325 810.135772,57.4979251 Z M801.685286,58.3563765 L800.481701,53.2527785 C800.259187,52.3147189 799.443098,51.6551942 798.506197,51.6562683 L787.623149,51.6562683 C786.636453,51.656278 785.792458,52.387106 785.622253,53.3888744 L784.794471,58.225515 C784.624265,59.2272834 783.78027,59.9581114 782.793574,59.9581211 L781.031364,59.9581211 C780.431323,59.9581152 779.861985,59.6846738 779.476021,59.2111226 C779.090057,58.7375714 778.92696,58.1123656 779.030467,57.5031596 L780.838384,46.9714271 C780.925534,46.46569 781.355786,46.0998257 781.854067,46.1077413 L801.878266,46.1077413 C804.529199,46.1077413 804.651081,41.616575 801.92905,41.616575 L784.15459,41.616575 C783.55455,41.6165691 782.985211,41.3431278 782.599247,40.8695766 C782.213283,40.3960254 782.050187,39.7708196 782.153694,39.1616135 L782.397458,37.7378406 C782.567329,36.7380158 783.408498,36.0077823 784.393276,36.0052345 L806.159371,36.0052345 C807.682896,36.0052345 808.856011,36.4606324 809.582224,37.355725 C810.308438,38.2508176 810.597908,39.6013081 810.288124,41.2815696 L809.384166,46.6521251 C809.189788,48.2357807 808.384248,49.6718071 807.149662,50.6355487 C806.480951,51.1368271 806.180266,52.0104397 806.392978,52.8340217 L807.47976,57.382767 C807.636986,58.0104102 807.503302,58.6777214 807.117743,59.189842 C806.732185,59.7019626 806.138236,60.0011341 805.509334,59.9999968 L803.66079,59.9999968 C802.710319,59.9959645 801.889631,59.313151 801.685286,58.3563765 Z M818.520238,57.4979251 L820.323076,46.9714271 C820.410227,46.46569 820.840479,46.0998257 821.33876,46.1077413 L842.835699,46.1077413 C843.436798,46.1074739 844.007146,46.3816174 844.393308,46.8564217 C844.779469,47.3312259 844.941788,47.9579299 844.836595,48.5679372 L844.602988,49.9288967 C844.430598,50.9285843 843.58718,51.6567065 842.602092,51.6562683 L827.107842,51.6562683 C826.121145,51.656278 825.27715,52.387106 825.106945,53.3888744 L824.284242,58.225515 C824.114037,59.2272834 823.270041,59.9581114 822.283345,59.9581211 L820.521135,59.9581211 C819.920036,59.9583885 819.349688,59.6842449 818.963526,59.2094407 C818.577364,58.7346365 818.415046,58.1079325 818.520238,57.4979251 Z M876.96774,36.0052345 L823.90336,36.0052345 C822.916664,36.0052441 822.072669,36.7360721 821.902464,37.7378406 L821.46572,40.3864771 C821.412617,40.6942048 821.49569,41.0102933 821.692226,41.2483183 C821.888761,41.4863432 822.1782,41.6214049 822.481404,41.616575 L876.723976,41.616575 C877.709064,41.6170132 878.552482,40.888891 878.724873,39.8892034 L878.968637,38.4654304 C879.073829,37.8554231 878.911511,37.2287191 878.525349,36.7539149 C878.139187,36.2791106 877.568839,36.0049671 876.96774,36.0052345 Z M858.74638,57.4979251 L860.569532,46.9714271 C860.656682,46.46569 861.086934,46.0998257 861.585215,46.1077413 L865.414341,46.1077413 C865.717545,46.1029114 866.006984,46.2379731 866.203519,46.475998 C866.400055,46.714023 866.483128,47.0301115 866.430025,47.3378393 L864.510383,58.225515 C864.340178,59.2272834 863.496183,59.9581114 862.509487,59.9581211 L860.742198,59.9581211 C860.141988,59.9568417 859.573052,59.6820371 859.188036,59.2074368 C858.80302,58.7328366 858.641342,58.107032 858.74638,57.4979251 Z" transform="translate(-779 -36)"/>
</svg>
