<svg xmlns="http://www.w3.org/2000/svg" width="18" height="20" viewBox="0 0 18 20">
  <path fill="#E1D7F5" d="M33.8914286,17 L20.1085714,17 C18.9462857,17 18,17.9223058 18,19.0651629 L18,32.6190476 C18,33.7619048 18.9462857,34.6842105 20.1085714,34.6842105 L31.7828571,34.6842105 L31.2274286,32.8295739 L32.544,33.9724311 L33.7782857,35.0952381 L36,37 L36,19.0551378 C36,17.9022556 35.0537143,17 33.8914286,17 Z M29.9314286,30.0927318 L29.2422857,29.2907268 C30.5794286,28.9097744 31.0937143,28.0877193 31.0937143,28.0877193 C30.6822857,28.358396 30.2708571,28.5488722 29.9211429,28.6892231 C29.4068571,28.8897243 28.8925714,29.0300752 28.3782857,29.1102757 C27.3908571,29.2907268 26.4857143,29.2406015 25.704,29.1102757 C25.128,28.9899749 24.624,28.8295739 24.2022857,28.6691729 C23.9657143,28.5689223 23.7085714,28.4686717 23.4514286,28.3283208 L23.3485714,28.2781955 L23.328,28.2481203 L23.04,28.0776942 C23.04,28.0776942 23.5337143,28.8796992 24.84,29.2606516 L24.1405714,30.0927318 C21.8777143,30.0225564 20.9931429,28.5689223 20.9931429,28.5689223 C21.0651429,25.3408521 22.536,22.7142857 22.536,22.7142857 C24.0274286,21.641604 25.4365714,21.6716792 25.4365714,21.6716792 L25.5394286,21.7919799 C23.688,22.3132832 22.8342857,23.0952381 22.8342857,23.0952381 L23.3897143,22.8145363 C24.4902857,22.3433584 25.3645714,22.2130326 25.7245714,22.1829574 L25.9097143,22.1629073 C26.5268571,22.0827068 27.2468571,22.0626566 27.9874286,22.1428571 C28.9645714,22.2431078 30.0137143,22.5438596 31.0731429,23.1052632 C31.0731429,23.1052632 30.2708571,22.3032581 28.5222857,21.802005 L28.6662857,21.6215539 C28.6662857,21.6215539 30.0548571,21.5914787 31.5462857,22.6741855 C31.5462857,22.6741855 33.0171429,25.2807018 33.0171429,28.518797 C33.0171429,28.518797 32.1428571,29.9824561 29.8697143,30.0526316 L29.9314286,30.0927318 Z M25.1382857,25.4210526 C24.552,25.4210526 24.0891429,25.9223058 24.0891429,26.5238095 C24.0891429,27.1253133 24.5622857,27.6265664 25.1382857,27.6265664 C25.7245714,27.6265664 26.1874286,27.1253133 26.1874286,26.5238095 C26.1874286,25.9223058 25.7245714,25.4210526 25.1382857,25.4210526 Z M28.8925714,25.4210526 C28.2754286,25.4210526 27.792,25.9223058 27.792,26.5238095 C27.792,27.1253133 28.2651429,27.6265664 28.8411429,27.6265664 C29.4171429,27.6265664 29.8697143,27.1253133 29.8697143,26.5238095 C29.8697143,25.9223058 29.4171429,25.4210526 28.8411429,25.4210526 L28.8925714,25.4210526 Z" opacity=".6" transform="translate(-18 -17)"/>
</svg>
